<?xml version="1.0" encoding="UTF-8" standalone="no"?>
<!-- Generator: Adobe Illustrator 13.0.0, SVG Export Plug-In  -->

<svg
   xmlns:dc="http://purl.org/dc/elements/1.1/"
   xmlns:cc="http://creativecommons.org/ns#"
   xmlns:rdf="http://www.w3.org/1999/02/22-rdf-syntax-ns#"
   xmlns:svg="http://www.w3.org/2000/svg"
   xmlns="http://www.w3.org/2000/svg"
   xmlns:sodipodi="http://sodipodi.sourceforge.net/DTD/sodipodi-0.dtd"
   xmlns:inkscape="http://www.inkscape.org/namespaces/inkscape"
   version="1.1"
   x="0px"
   y="0px"
   width="575.9375"
   height="575.9375"
   viewBox="-0.531 -0.531 575.9375 575.9375"
   enable-background="new -0.531 -0.531 576 576"
   xml:space="preserve"
   id="svg2"
   inkscape:version="0.92.4 (5da689c313, 2019-01-14)"
   sodipodi:docname="Cambodia_road_sign_R1-41(60).svg"><metadata
     id="metadata18"><rdf:RDF><cc:Work
         rdf:about=""><dc:format>image/svg+xml</dc:format><dc:type
           rdf:resource="http://purl.org/dc/dcmitype/StillImage" /><dc:title></dc:title></cc:Work></rdf:RDF></metadata><sodipodi:namedview
     pagecolor="#ffffff"
     bordercolor="#666666"
     borderopacity="1"
     objecttolerance="10"
     gridtolerance="10"
     guidetolerance="10"
     inkscape:pageopacity="0"
     inkscape:pageshadow="2"
     inkscape:window-width="1920"
     inkscape:window-height="1027"
     id="namedview16"
     showgrid="false"
     fit-margin-top="0"
     fit-margin-left="0"
     fit-margin-right="0"
     fit-margin-bottom="0"
     inkscape:zoom="1.1588694"
     inkscape:cx="156.11227"
     inkscape:cy="211.99288"
     inkscape:window-x="-8"
     inkscape:window-y="-8"
     inkscape:window-maximized="1"
     inkscape:current-layer="svg2" /><defs
     id="defs4"><path
       inkscape:connector-curvature="0"
       d="M 500,-207.10678 500,207.10678 207.10678,500 -207.10678,500 -500,207.10678 -500,-207.10678 -207.10678,-500 l 414.21356,0 z"
       id="Oct" /><marker
       style="overflow:visible"
       orient="auto"
       overflow="visible"
       markerHeight="1"
       markerWidth="1"
       viewBox="0 0 1 1"
       markerUnits="strokeWidth"
       id="DefaultArrow2"><!-- REF_ARROW_STRAIGHT (-2) --><g
         id="g7"
         transform="scale(0.00925926,0.00925926)"><!-- 1/108 --><path
           inkscape:connector-curvature="0"
           id="path9"
           d="M -9,54 -9,-54 117,0 z" /></g></marker><marker
       style="overflow:visible"
       orient="auto"
       overflow="visible"
       markerHeight="1"
       markerWidth="1"
       viewBox="0 0 1 1"
       markerUnits="strokeWidth"
       id="DefaultArrow3"><!-- REF_ARROW_ANGLED --><g
         id="g12"
         transform="scale(0.00925926,0.00925926)"><path
           inkscape:connector-curvature="0"
           id="path14"
           d="M -27,54 -9,0 -27,-54 135,0 z" /></g></marker><marker
       style="overflow:visible"
       orient="auto"
       overflow="visible"
       markerHeight="1"
       markerWidth="1"
       viewBox="0 0 1 1"
       markerUnits="strokeWidth"
       id="DefaultArrow4"><!-- REF_ARROW_ROUNDED --><g
         id="g17"
         transform="scale(0.00925926,0.00925926)"><path
           inkscape:connector-curvature="0"
           id="path19"
           d="m -9,0 0,-45 c 0,-6.708 11.808,-11.58 18,-9 l 108,45 c 3.916,1.631 9,4.758 9,9 0,4.242 -5.084,7.369 -9,9 L 9,54 C 2.808,56.58 -9,51.708 -9,45 z" /></g></marker><marker
       style="overflow:visible"
       orient="auto"
       overflow="visible"
       markerHeight="1"
       markerWidth="1"
       viewBox="0 0 1 1"
       markerUnits="strokeWidth"
       id="DefaultArrow5"><!-- REF_ARROW_SPOT --><g
         id="g22"
         transform="scale(0.00925926,0.00925926)"><path
           inkscape:connector-curvature="0"
           id="path24"
           d="M -54,0 C -54,29.807 -29.807,54 0,54 29.807,54 54,29.807 54,0 54,-29.807 29.807,-54 0,-54 -29.807,-54 -54,-29.807 -54,0 z" /></g></marker><marker
       style="overflow:visible"
       orient="auto"
       overflow="visible"
       markerHeight="1"
       markerWidth="1"
       viewBox="0 0 1 1"
       markerUnits="strokeWidth"
       id="DefaultArrow6"><!-- REF_ARROW_DIAMOND --><g
         id="g27"
         transform="scale(0.00925926,0.00925926)"><path
           inkscape:connector-curvature="0"
           id="path29"
           d="M -63,0 0,63 63,0 0,-63 z" /></g></marker><marker
       style="overflow:visible"
       orient="auto"
       overflow="visible"
       markerHeight="1"
       markerWidth="1"
       viewBox="0 0 1 1"
       markerUnits="strokeWidth"
       id="DefaultArrow7"><!-- REF_ARROW_FEATHER --><g
         id="g32"
         transform="scale(0.00925926,0.00925926)"><path
           inkscape:connector-curvature="0"
           id="path34"
           d="m 18,-54 90,0 L 63,0 108,54 18,54 -36,0 z" /></g></marker><marker
       style="overflow:visible"
       orient="auto"
       overflow="visible"
       markerHeight="1"
       markerWidth="1"
       viewBox="0 0 1 1"
       markerUnits="strokeWidth"
       id="DefaultArrow8"><!-- REF_ARROW_FEATHER2 --><g
         id="g37"
         transform="scale(0.00925926,0.00925926)"><path
           inkscape:connector-curvature="0"
           id="path39"
           d="m -36,0 54,-54 36,0 -36,36 9,0 36,-36 36,0 -36,36 9,0 36,-36 36,0 -54,54 54,54 -36,0 -36,-36 -9,0 36,36 -36,0 -36,-36 -9,0 36,36 -36,0 z" /></g></marker><marker
       style="overflow:visible"
       orient="auto"
       overflow="visible"
       markerHeight="1"
       markerWidth="1"
       viewBox="0 0 1 1"
       markerUnits="strokeWidth"
       id="DefaultArrow9"><!-- REF_ARROW_HOLLOWDIAMOND --><g
         id="g42"
         transform="scale(0.00925926,0.00925926)"><path
           inkscape:connector-curvature="0"
           id="path44"
           d="M 0,45 -45,0 0,-45 45,0 z M 0,63 -63,0 0,-63 63,0 z" /></g></marker><filter
       color-interpolation-filters="sRGB"
       id="StainedFilter"><feBlend
         id="feBlend47"
         result="blend"
         in="SourceGraphic"
         in2="BackgroundImage"
         mode="multiply" /><feComposite
         id="feComposite49"
         result="comp"
         operator="in"
         in2="SourceAlpha"
         in="blend" /></filter><filter
       color-interpolation-filters="sRGB"
       id="BleachFilter"><feBlend
         id="feBlend52"
         result="blend"
         in="SourceGraphic"
         in2="BackgroundImage"
         mode="screen" /><feComposite
         id="feComposite54"
         result="comp"
         operator="in"
         in2="SourceAlpha"
         in="blend" /></filter><filter
       color-interpolation-filters="sRGB"
       id="InvertTransparencyBitmapFilter"><feComponentTransfer
         id="feComponentTransfer57"><feFuncR
           id="feFuncR59"
           offset="-0.055"
           exponent=".416666666"
           amplitude="1.055"
           type="gamma" /><feFuncG
           id="feFuncG61"
           offset="-0.055"
           exponent=".416666666"
           amplitude="1.055"
           type="gamma" /><feFuncB
           id="feFuncB63"
           offset="-0.055"
           exponent=".416666666"
           amplitude="1.055"
           type="gamma" /></feComponentTransfer><feComponentTransfer
         id="feComponentTransfer65"><feFuncR
           id="feFuncR67"
           intercept="1"
           slope="-1"
           type="linear" /><feFuncG
           id="feFuncG69"
           intercept="1"
           slope="-1"
           type="linear" /><feFuncB
           id="feFuncB71"
           intercept="1"
           slope="-1"
           type="linear" /><feFuncA
           id="feFuncA73"
           intercept="0"
           slope="1"
           type="linear" /></feComponentTransfer><feComponentTransfer
         id="feComponentTransfer75"><feFuncR
           id="feFuncR77"
           offset="0"
           exponent="2.4"
           amplitude="1"
           type="gamma" /><feFuncG
           id="feFuncG79"
           offset="0"
           exponent="2.4"
           amplitude="1"
           type="gamma" /><feFuncB
           id="feFuncB81"
           offset="0"
           exponent="2.4"
           amplitude="1"
           type="gamma" /></feComponentTransfer></filter><path
       id="Oct-9"
       d="M 500,-207.10678 500,207.10678 207.10678,500 -207.10678,500 -500,207.10678 -500,-207.10678 -207.10678,-500 l 414.21356,0 z"
       inkscape:connector-curvature="0" /><path
       id="Oct-8"
       d="M 500,-207.10678 500,207.10678 207.10678,500 -207.10678,500 -500,207.10678 -500,-207.10678 -207.10678,-500 l 414.21356,0 z"
       inkscape:connector-curvature="0" /></defs><circle
     cx="287.46899"
     cy="287.46899"
     r="286.96899"
     id="circle6"
     style="fill:#ffffff;stroke:#000000;stroke-width:2;stroke-linecap:round;stroke-linejoin:round;stroke-miterlimit:4;stroke-opacity:1;stroke-dasharray:none"
     sodipodi:cx="287.46899"
     sodipodi:cy="287.46899"
     sodipodi:rx="286.96899"
     sodipodi:ry="286.96899"
     transform="translate(-0.031,-0.031)" /><circle
     cx="287.46899"
     cy="287.46899"
     r="273.98199"
     id="circle8"
     style="fill:#ed1c24;fill-opacity:1;stroke:none"
     sodipodi:cx="287.46899"
     sodipodi:cy="287.46899"
     sodipodi:rx="273.98199"
     sodipodi:ry="273.98199"
     transform="translate(-0.031,-0.031)" /><circle
     cx="287.46899"
     cy="287.46899"
     r="192.438"
     id="circle10"
     style="fill:#ffffff;stroke:none;fill-opacity:1"
     transform="translate(-0.031,-0.031)"
     sodipodi:ry="192.438"
     sodipodi:rx="192.438"
     sodipodi:cy="287.46899"
     sodipodi:cx="287.46899" /><g
     style="overflow:visible;fill-rule:evenodd;stroke-width:0.50099999;stroke-linejoin:bevel;fill:#800000;fill-opacity:1"
     id="g5988"
     transform="matrix(0.43065208,0,0,0.43065208,27.518443,41.701509)"><g
       style="font-size:16px;font-family:'Times New Roman';fill:#800000;stroke:#000000;fill-opacity:1"
       transform="matrix(1,0,0,-1,0.20944779,0.21149779)"
       font-size="16"
       id="g5986"><g
         transform="translate(0,-1185.85)"
         id="g5984"
         style="fill:#800000;fill-opacity:1"><g
           id="g5980"
           style="fill:#800000;fill-opacity:1"><g
             id="g5978"
             style="fill:#800000;fill-opacity:1" /></g><g
           id="g5982"
           style="fill:#800000;fill-opacity:1" /></g></g></g><g
     aria-label="60"
     style="font-style:normal;font-weight:normal;font-size:279.38415527px;line-height:1.25;font-family:sans-serif;letter-spacing:0px;word-spacing:0px;fill:#000000;fill-opacity:1;stroke:#000000;stroke-width:6.98500967;stroke-miterlimit:4;stroke-dasharray:none;stroke-opacity:1"
     id="text3839"><path
       d="m 216.64275,187.20134 q 32.74033,0 45.56363,17.05225 12.95971,16.91584 12.95971,34.92302 h -24.28241 q -2.18269,-11.59553 -6.95732,-18.1436 -8.86717,-12.27762 -26.87435,-12.27762 -20.59913,0 -32.74033,19.09852 -12.14121,18.96211 -13.50539,54.4308 8.45792,-12.41404 21.28122,-18.55285 11.73195,-5.45672 26.19226,-5.45672 24.55525,0 42.83527,15.68807 18.28001,15.68808 18.28001,46.79139 0,26.60152 -17.32509,47.20064 -17.32509,20.46271 -49.38333,20.46271 -27.42003,0 -47.33706,-20.73554 -19.91704,-20.87196 -19.91704,-70.11888 0,-36.42361 8.86718,-61.79737 17.05225,-48.56482 62.34304,-48.56482 z m -1.77343,179.38972 q 19.37136,0 28.92062,-12.95971 9.68569,-13.09613 9.68569,-30.83048 0,-15.00598 -8.59434,-28.51137 -8.59434,-13.6418 -31.23973,-13.6418 -15.8245,0 -27.82928,10.50419 -11.86837,10.50418 -11.86837,31.64898 0,18.55286 10.77702,31.23973 10.91344,12.55046 30.14839,12.55046 z"
       style="font-style:normal;font-variant:normal;font-weight:normal;font-stretch:normal;font-family:Helvetica;-inkscape-font-specification:Helvetica;fill:#000000;fill-opacity:1;stroke:#000000;stroke-width:6.98500967;stroke-miterlimit:4;stroke-dasharray:none;stroke-opacity:1"
       id="path4942" /><path
       d="m 366.02051,188.01984 q 37.92422,0 54.84006,31.23974 13.09613,24.14599 13.09613,66.16275 0,39.83407 -11.86837,65.88991 -17.18867,37.37855 -56.20424,37.37855 -35.19585,0 -52.38452,-30.55764 -14.3239,-25.51018 -14.3239,-68.48186 0,-33.28601 8.59434,-57.15916 16.09733,-44.47229 58.2505,-44.47229 z m -0.27283,178.29839 q 19.09852,0 30.42122,-16.91584 11.3227,-16.91584 11.3227,-63.02514 0,-33.286 -8.18508,-54.70363 -8.18509,-21.55405 -31.78541,-21.55405 -21.69047,0 -31.7854,20.4627 -9.95852,20.32629 -9.95852,60.02394 0,29.87555 6.41165,48.01915 9.8221,27.69287 33.55884,27.69287 z"
       style="font-style:normal;font-variant:normal;font-weight:normal;font-stretch:normal;font-family:Helvetica;-inkscape-font-specification:Helvetica;fill:#000000;fill-opacity:1;stroke:#000000;stroke-width:6.98500967;stroke-miterlimit:4;stroke-dasharray:none;stroke-opacity:1"
       id="path4944" /></g><text
     xml:space="preserve"
     style="font-style:normal;font-weight:normal;font-size:40px;line-height:1.25;font-family:sans-serif;letter-spacing:0px;word-spacing:0px;fill:#000000;fill-opacity:1;stroke:none"
     x="-371.58231"
     y="251.81525"
     id="text4792"><tspan
       sodipodi:role="line"
       id="tspan4790"
       x="-371.58231"
       y="288.30847" /></text>
</svg>